<?xml version="1.0" encoding="utf-8"?>
<!-- Generator: Adobe Illustrator 15.1.0, SVG Export Plug-In . SVG Version: 6.00 Build 0)  -->
<!DOCTYPE svg PUBLIC "-//W3C//DTD SVG 1.1//EN" "http://www.w3.org/Graphics/SVG/1.1/DTD/svg11.dtd">
<svg version="1.1" id="Layer_1" xmlns="http://www.w3.org/2000/svg" xmlns:xlink="http://www.w3.org/1999/xlink" x="0px" y="0px"
	 width="41.182px" height="49.491px" viewBox="0 0 41.182 49.491" enable-background="new 0 0 41.182 49.491" xml:space="preserve">
<g>
	<defs>
		<rect id="SVGID_1_" width="41.182" height="49.491"/>
	</defs>
	<clipPath id="SVGID_2_">
		<use xlink:href="#SVGID_1_"  overflow="visible"/>
	</clipPath>
	<path clip-path="url(#SVGID_2_)" fill="#F2A37A" d="M41.182,8.83l-2.144,1.331c-0.229-0.266-0.468-0.524-0.733-0.766l-0.868-0.796
		c-3.572-3.272-9.121-3.028-12.393,0.544L6.262,29.649l-6.236,3.837L0,40.499c0.143,2.176,1.086,4.304,2.821,5.895l0.869,0.795
		c3.572,3.271,9.12,3.027,12.393-0.544l22.766-24.857c1.455-1.588,2.211-3.568,2.292-5.565L41.182,8.83z"/>
	<path clip-path="url(#SVGID_2_)" fill="#FBBA92" d="M38.694,16.051L16.793,39.962c-3.312,3.617-8.929,3.863-12.545,0.551
		l-1.282-1.174c-3.616-3.313-3.862-8.929-0.55-12.545L24.317,2.883c3.313-3.617,8.93-3.863,12.545-0.551l1.281,1.174
		C41.761,6.818,42.007,12.435,38.694,16.051"/>
	<path clip-path="url(#SVGID_2_)" fill="#FDDCC2" d="M37.084,11.485L13.641,37.08c-0.44,0.481-1.187,0.515-1.668,0.073
		c-0.481-0.439-0.513-1.187-0.073-1.667L35.344,9.892c0.439-0.481,1.187-0.514,1.668-0.074
		C37.492,10.258,37.524,11.004,37.084,11.485"/>
	<path clip-path="url(#SVGID_2_)" fill="#F2A37A" d="M27.456,23.362c-0.053-3.292-4.046-6.567-4.046-6.567
		c-3.577-3.276-9.132-3.032-12.408,0.545l-0.477,0.52c3.325-2.808,8.293-2.784,11.587,0.233c0,0,3.993,3.275,4.046,6.567l0.186,7.17
		c-0.08,1.976-0.97,4.206-0.97,4.206c1.439-1.57,2.188-3.528,2.268-5.504L27.456,23.362z"/>
</g>
</svg>
